<svg width="48" height="48" viewBox="0 0 48 48" fill="none" xmlns="http://www.w3.org/2000/svg">
<path id="Combined Shape" fill-rule="evenodd" clip-rule="evenodd" d="M0 24C0 10.7452 10.7454 0 24.0005 0C37.2546 0 48 10.7462 48 24C48 37.2568 37.2546 48 24.0005 48C10.7454 48 0 37.2568 0 24ZM2 24C2 36.1515 11.8493 46 24.0005 46C36.1509 46 46 36.1514 46 24C46 11.8505 36.1498 2 24.0005 2C11.85 2 2 11.8498 2 24ZM26.7938 28.4975C27.0433 28.337 27.2787 28.166 27.8288 27.7532C29.2981 26.6505 29.6713 26.4105 30.3321 26.4105H30.5682L30.7793 26.5161C32.4051 27.329 35.5367 29.6772 37.1317 31.2723L37.4246 31.5652V31.9794C37.4246 34.0554 33.9307 37.5482 31.8546 37.5482L31.6586 37.5288C23.6501 35.9288 12.6813 24.9586 11.0781 16.9478L11.0586 16.7516C11.0586 14.6768 14.5526 11.1827 16.6273 11.1827H16.8634L17.0746 11.2883C18.5988 12.0505 20.7708 15.1876 22.0905 17.8269L22.196 18.0381V18.2741C22.196 18.9346 21.9561 19.3079 20.8543 20.7777C20.4418 21.328 20.2709 21.5637 20.1105 21.8133C20.071 21.8747 20.0375 21.9305 20.0099 21.9763L20.0098 21.9765C19.9948 22.0016 19.9814 22.0237 19.9699 22.0422C20.8585 24.0304 24.577 27.7492 26.5653 28.638C26.5838 28.6264 26.606 28.6131 26.6311 28.5979L26.6311 28.5979C26.6769 28.5704 26.7325 28.537 26.7938 28.4975ZM30.0643 28.6086C29.8148 28.7691 29.5793 28.9401 29.0293 29.3529C27.5598 30.4556 27.1868 30.6956 26.526 30.6956H26.3637L26.2097 30.6443C23.6274 29.7835 18.8244 24.9803 17.9637 22.3979L17.9123 22.244V22.0817C17.9123 21.4212 18.1522 21.0479 19.2541 19.5781C19.6666 19.0278 19.8375 18.7922 19.9979 18.5426C20.0374 18.4811 20.0709 18.4253 20.0985 18.3794L20.0985 18.3794L20.1134 18.3546C19.0568 16.3455 17.3867 13.9374 16.4055 13.2182C15.3422 13.5237 13.1816 15.7223 13.0637 16.674C14.5886 23.8478 24.7609 34.0213 31.9321 35.5432C32.8484 35.4301 34.917 33.4281 35.3458 32.3284C33.9377 31.015 31.6286 29.2834 30.2442 28.4978L30.2271 28.5081L30.227 28.5081C30.1812 28.5357 30.1256 28.5691 30.0643 28.6086Z" fill="url(#paint0_linear_0_2742)"/>
<defs>
<linearGradient id="paint0_linear_0_2742" x1="24" y1="-24" x2="-24" y2="24" gradientUnits="userSpaceOnUse">
<stop stop-color="#FFC105"/>
<stop offset="1" stop-color="#737CFF"/>
</linearGradient>
</defs>
</svg>
